<?xml version="1.0" encoding="utf-8"?>
<!-- Generator: Adobe Illustrator 25.0.1, SVG Export Plug-In . SVG Version: 6.00 Build 0)  -->
<svg version="1.1" id="Capa_1" xmlns="http://www.w3.org/2000/svg" xmlns:xlink="http://www.w3.org/1999/xlink" x="0px" y="0px"
	 viewBox="0 0 15 24.8" style="enable-background:new 0 0 15 24.8;" xml:space="preserve">
<path d="M8.9,12.4l5.8-5.8c0.4-0.4,0.4-1,0-1.4c-0.4-0.4-1-0.4-1.4,0L7.5,11L1.7,5.2c-0.4-0.4-1-0.4-1.4,0c-0.4,0.4-0.4,1,0,1.4
	l5.8,5.8l-5.8,5.8c-0.4,0.4-0.4,1,0,1.4c0.2,0.2,0.4,0.3,0.7,0.3s0.5-0.1,0.7-0.3l5.8-5.8l5.8,5.8c0.2,0.2,0.4,0.3,0.7,0.3
	c0.2,0,0.5-0.1,0.7-0.3c0.4-0.4,0.4-1,0-1.4L8.9,12.4z"/>
</svg>
